<svg width="1735.47001953125px" height="252.81501464843748px" xmlns="http://www.w3.org/2000/svg" viewBox="-617.735009765625 -51.40750732421874 1735.47001953125 252.81501464843748" style="background: rgb(255, 255, 255);" preserveAspectRatio="xMidYMid"><defs><filter id="editing-extrude-glow"><feFlood flood-color="#ffffff" result="flood-1"></feFlood><feMorphology operator="erode" radius="1" in="SourceAlpha" result="erode"></feMorphology><feComposite operator="in" in="flood-1" in2="erode" result="comp1"></feComposite><feConvolveMatrix order="3,3" divisor="1" in="comp1" result="convolve" kernelMatrix="0 0 0 1 1 1 0 0 0"></feConvolveMatrix><feOffset dx="-3" dy="0" in="convolve" result="extrude"></feOffset><feComposite operator="in" in="flood-1" in2="extrude" result="comp-extrude"></feComposite><feFlood flood-color="#f9ae5c" result="flood-2"></feFlood><feComposite operator="in" in="flood-2" in2="SourceAlpha" result="comp2"></feComposite><feMorphology operator="dilate" radius="1" in="comp2" result="dilate"></feMorphology><feOffset dx="-4.5" dy="0" in="dilate" result="offset"></feOffset><feGaussianBlur in="offset" stdDeviation="5.8" result="blur"></feGaussianBlur><feComponentTransfer in="blur" result="shadow"><feFuncA type="linear" slope="0.8" intercept="-0.2"></feFuncA></feComponentTransfer><feMerge><feMergeNode in="shadow"></feMergeNode><feMergeNode in="comp-extrude"></feMergeNode><feMergeNode in="SourceGraphic"></feMergeNode></feMerge></filter></defs><g filter="url(#editing-extrude-glow)"><g transform="translate(-379.8950146436691, 130.125)"><path d="M57.33-11.02L57.33-11.02L57.33-11.02Q57.33-21.31 61.45-41.89L61.45-41.89L39.69-41.89L31.60 0L0.88 0L19.55-97.02L50.57-97.02L42.04-53.65L63.80-53.65L71.88-97.02L102.90-97.02L102.90-97.02Q100.84-86.14 98.20-73.94L98.20-73.94L93.20-49.98L93.20-49.98Q87.61-22.05 87.61-9.85L87.61-9.85L87.61-9.85Q87.61-4.85 89.23-2.06L89.23-2.06L89.23-2.06Q81.88 2.94 73.28 2.94L73.28 2.94L73.28 2.94Q64.68 2.94 61.00-1.18L61.00-1.18L61.00-1.18Q57.33-5.29 57.33-11.02ZM112.82-4.41L112.82-4.41L112.82-4.41Q109.37-8.23 107.82-14.26L107.82-14.26L107.82-14.26Q106.28-20.29 106.28-30.13L106.28-30.13L106.28-30.13Q106.28-39.98 109.66-48.95L109.66-48.95L109.66-48.95Q113.04-57.92 119.22-64.39L119.22-64.39L119.22-64.39Q131.86-77.91 152.73-77.91L152.73-77.91L152.73-77.91Q160.23-77.91 165.67-75.41L165.67-75.41L190.81-77.91L179.93-20.58L179.93-20.58Q179.49-18.82 179.49-15.58L179.49-15.58L179.49-15.58Q179.49-12.35 181.47-10.29L181.47-10.29L181.47-10.29Q183.46-8.23 186.40-7.94L186.40-7.94L186.40-7.94Q184.93-2.94 179.56 0L179.56 0L179.56 0Q174.19 2.94 168.17 2.94L168.17 2.94L168.17 2.94Q162.14 2.94 158.10 0.66L158.10 0.66L158.10 0.66Q154.06-1.62 152.88-5.44L152.88-5.44L152.88-5.44Q150.53-1.76 145.53 0.59L145.53 0.59L145.53 0.59Q140.53 2.94 133.84 2.94L133.84 2.94L133.84 2.94Q127.15 2.94 121.72 1.18L121.72 1.18L121.72 1.18Q116.28-0.59 112.82-4.41ZM143.84-64.09L143.84-64.09L143.84-64.09Q142.15-61.45 140.68-56.96L140.68-56.96L140.68-56.96Q139.21-52.48 136.78-40.50L136.78-40.50L136.78-40.50Q134.36-28.52 134.36-19.99L134.36-19.99L134.36-19.99Q134.36-11.47 135.68-8.97L135.68-8.97L135.68-8.97Q137.00-6.47 139.36-6.47L139.36-6.47L139.36-6.47Q144.06-6.47 147.51-10.95L147.51-10.95L147.51-10.95Q150.97-15.43 152.29-23.37L152.29-23.37L160.08-66.44L160.08-66.44Q157.00-69.09 153.39-69.09L153.39-69.09L153.39-69.09Q149.79-69.09 147.66-67.91L147.66-67.91L147.66-67.91Q145.53-66.74 143.84-64.09ZM260.92 2.94L260.92 2.94L260.92 2.94Q243.14 2.94 243.14-10.88L243.14-10.88L243.14-10.88Q243.28-14.70 244.46-21.17L244.46-21.17L247.11-34.69L247.11-34.69Q251.08-53.80 251.08-58.06L251.08-58.06L251.08-58.06Q251.08-66.59 246.08-66.59L246.08-66.59L246.08-66.59Q237.70-66.59 233.29-44.69L233.29-44.69L224.62 0L195.07 2.94L210.36-75.12L234.46-77.91L232.11-63.50L232.11-63.50Q239.02-77.91 260.19-77.91L260.19-77.91L260.19-77.91Q270.48-77.91 274.82-73.57L274.82-73.57L274.82-73.57Q279.15-69.24 279.15-59.53L279.15-59.53L279.15-59.53Q279.15-50.42 274.45-29.11L274.45-29.11L274.45-29.11Q272.24-19.55 272.24-15.95L272.24-15.95L272.24-15.95Q272.24-12.35 274.23-10.29L274.23-10.29L274.23-10.29Q276.21-8.23 279.15-7.94L279.15-7.94L279.15-7.94Q277.68-2.94 272.61 0L272.61 0L272.61 0Q267.54 2.94 260.92 2.94ZM353.09 2.94L353.09 2.94L353.09 2.94Q335.31 2.94 335.31-10.88L335.31-10.88L335.31-10.88Q335.45-14.70 336.63-21.17L336.63-21.17L339.28-34.69L339.28-34.69Q343.25-53.80 343.25-58.06L343.25-58.06L343.25-58.06Q343.25-66.59 338.25-66.59L338.25-66.59L338.25-66.59Q329.87-66.59 325.46-44.69L325.46-44.69L316.78 0L287.24 2.94L302.53-75.12L326.63-77.91L324.28-63.50L324.28-63.50Q331.19-77.91 352.36-77.91L352.36-77.91L352.36-77.91Q362.65-77.91 366.99-73.57L366.99-73.57L366.99-73.57Q371.32-69.24 371.32-59.53L371.32-59.53L371.32-59.53Q371.32-50.42 366.62-29.11L366.62-29.11L366.62-29.11Q364.41-19.55 364.41-15.95L364.41-15.95L364.41-15.95Q364.41-12.35 366.40-10.29L366.40-10.29L366.40-10.29Q368.38-8.23 371.32-7.94L371.32-7.94L371.32-7.94Q369.85-2.94 364.78 0L364.78 0L364.78 0Q359.71 2.94 353.09 2.94ZM418.36-8.08L418.36-8.08L418.36-8.08Q413.80 2.94 399.25 2.94L399.25 2.94L399.25 2.94Q391.75 2.94 387.05-2.21L387.05-2.21L387.05-2.21Q383.08-6.76 383.08-11.32L383.08-11.32L383.08-11.32Q383.08-23.23 388.52-46.45L388.52-46.45L393.96-74.97L423.80-77.91L414.83-31.46L414.83-31.46Q412.33-20.58 412.33-16.76L412.33-16.76L412.33-16.76Q412.33-8.38 418.36-8.08ZM396.61-95.40L396.61-95.40L396.61-95.40Q396.61-101.14 401.38-104.22L401.38-104.22L401.38-104.22Q406.16-107.31 413.07-107.31L413.07-107.31L413.07-107.31Q419.98-107.31 424.17-104.22L424.17-104.22L424.17-104.22Q428.36-101.14 428.36-95.40L428.36-95.40L428.36-95.40Q428.36-89.67 423.73-86.73L423.73-86.73L423.73-86.73Q419.10-83.79 412.19-83.79L412.19-83.79L412.19-83.79Q405.28-83.79 400.94-86.73L400.94-86.73L400.94-86.73Q396.61-89.67 396.61-95.40ZM433.21-14.70L433.21-14.70L433.21-14.70Q433.21-18.67 435.27-28.66L435.27-28.66L443.06-68.35L434.38-68.35L434.97-72.77L434.97-72.77Q452.61-78.06 469.66-90.99L469.66-90.99L476.72-90.99L473.19-74.97L484.66-74.97L483.34-68.35L472.02-68.35L464.52-28.66L464.52-28.66Q462.61-19.55 462.61-16.46L462.61-16.46L462.61-16.46Q462.61-9.41 468.78-7.94L468.78-7.94L468.78-7.94Q467.31-2.94 462.02 0L462.02 0L462.02 0Q456.73 2.94 449.23 2.94L449.23 2.94L449.23 2.94Q441.73 2.94 437.47-1.76L437.47-1.76L437.47-1.76Q433.21-6.47 433.21-14.70ZM489.73-4.41L489.73-4.41L489.73-4.41Q486.28-8.23 484.73-14.26L484.73-14.26L484.73-14.26Q483.19-20.29 483.19-30.13L483.19-30.13L483.19-30.13Q483.19-39.98 486.57-48.95L486.57-48.95L486.57-48.95Q489.95-57.92 496.12-64.39L496.12-64.39L496.12-64.39Q508.77-77.91 529.64-77.91L529.64-77.91L529.64-77.91Q537.14-77.91 542.58-75.41L542.58-75.41L567.71-77.91L556.84-20.58L556.84-20.58Q556.39-18.82 556.39-15.58L556.39-15.58L556.39-15.58Q556.39-12.35 558.38-10.29L558.38-10.29L558.38-10.29Q560.36-8.23 563.30-7.94L563.30-7.94L563.30-7.94Q561.83-2.94 556.47 0L556.47 0L556.47 0Q551.10 2.94 545.08 2.94L545.08 2.94L545.08 2.94Q539.05 2.94 535.01 0.66L535.01 0.66L535.01 0.66Q530.96-1.62 529.79-5.44L529.79-5.44L529.79-5.44Q527.44-1.76 522.44 0.59L522.44 0.59L522.44 0.59Q517.44 2.94 510.75 2.94L510.75 2.94L510.75 2.94Q504.06 2.94 498.62 1.18L498.62 1.18L498.62 1.18Q493.18-0.59 489.73-4.41ZM520.75-64.09L520.75-64.09L520.75-64.09Q519.06-61.45 517.59-56.96L517.59-56.96L517.59-56.96Q516.12-52.48 513.69-40.50L513.69-40.50L513.69-40.50Q511.27-28.52 511.27-19.99L511.27-19.99L511.27-19.99Q511.27-11.47 512.59-8.97L512.59-8.97L512.59-8.97Q513.91-6.47 516.26-6.47L516.26-6.47L516.26-6.47Q520.97-6.47 524.42-10.95L524.42-10.95L524.42-10.95Q527.88-15.43 529.20-23.37L529.20-23.37L536.99-66.44L536.99-66.44Q533.90-69.09 530.30-69.09L530.30-69.09L530.30-69.09Q526.70-69.09 524.57-67.91L524.57-67.91L524.57-67.91Q522.44-66.74 520.75-64.09ZM668.70-22.64L668.70-22.64L668.70-22.64Q671.50-19.11 671.50-13.38L671.50-13.38L671.50-13.38Q671.50-5.44 665.62-1.25L665.62-1.25L665.62-1.25Q659.74 2.94 650.47 2.94L650.47 2.94L650.47 2.94Q645.18 2.94 637.10 1.76L637.10 1.76L637.10 1.76Q621.22-0.73 616.37-0.73L616.37-0.73L616.37-0.73Q611.52-0.73 609.61-0.51L609.61-0.51L609.61-0.51Q607.70-0.29 604.61 0L604.61 0L622.69-97.02L686.05-97.02L686.05-97.02Q686.05-88.05 681.71-83.35L681.71-83.35L681.71-83.35Q677.38-78.64 668.85-78.64L668.85-78.64L668.85-78.64Q660.32-78.64 651.65-82.61L651.65-82.61L647.09-56.89L673.26-56.89L673.26-56.89Q673.26-49.10 669.44-44.76L669.44-44.76L669.44-44.76Q665.62-40.42 659.22-40.42L659.22-40.42L659.22-40.42Q652.83-40.42 648.86-41.89L648.86-41.89L648.86-41.89Q644.89-43.36 644.45-43.81L644.45-43.81L639.16-16.02L639.16-16.02Q642.68-15.58 649.30-15.58L649.30-15.58L649.30-15.58Q660.62-15.58 668.70-22.64ZM704.57 0.44L704.57 0.44L704.57 0.44Q699.87 2.94 693.40 2.94L693.40 2.94L693.40 2.94Q686.93 2.94 683.40-0.37L683.40-0.37L683.40-0.37Q679.88-3.67 679.88-10.07L679.88-10.07L679.88-10.07Q679.88-16.46 684.36-22.71L684.36-22.71L684.36-22.71Q688.84-28.96 695.53-32.49L695.53-32.49L695.53-32.49Q702.22-36.02 706.92-38.07L706.92-38.07L697.66-59.39L697.66-59.39Q695.16-64.83 690.46-64.83L690.46-64.83L689.28-64.68L688.84-64.68L688.84-64.68Q689.72-69.83 695.75-73.79L695.75-73.79L695.75-73.79Q701.78-77.91 708.69-77.91L708.69-77.91L708.69-77.91Q719.86-77.91 725.00-66.74L725.00-66.74L726.18-64.39L732.50-48.80L732.50-48.80Q736.47-50.57 738.16-53.88L738.16-53.88L738.16-53.88Q739.85-57.18 739.85-63.72L739.85-63.72L739.85-63.72Q739.85-70.27 736.32-74.38L736.32-74.38L736.32-74.38Q741.91-77.91 749.26-77.91L749.26-77.91L749.26-77.91Q762.49-77.91 762.49-65.12L762.49-65.12L762.49-65.12Q762.49-51.16 745.00-43.07L745.00-43.07L736.18-38.95L744.11-18.52L744.11-18.52Q746.47-12.35 750.73-9.70L750.73-9.70L750.73-9.70Q752.49-8.53 754.55-8.38L754.55-8.38L754.55-8.38Q750.14-1.18 740.59 2.06L740.59 2.06L740.59 2.06Q737.65 2.94 733.68 2.94L733.68 2.94L733.68 2.94Q729.71 2.94 725.15 0.22L725.15 0.22L725.15 0.22Q720.59-2.50 718.98-6.76L718.98-6.76L710.89-27.78L710.89-27.78Q702.66-24.11 702.66-10.73L702.66-10.73L702.66-10.73Q702.66-4.56 704.57 0.44ZM837.90-61.15L837.90-61.15L837.90-61.15Q837.90-54.98 832.75-51.16L832.75-51.16L832.75-51.16Q827.61-47.33 819.23-47.33L819.23-47.33L819.23-47.33Q815.70-47.33 813.64-48.36L813.64-48.36L813.64-48.36Q815.26-52.18 815.78-56.96L815.78-56.96L815.78-56.96Q816.29-61.74 816.29-63.06L816.29-63.06L816.29-63.06Q816.29-69.24 812.03-69.24L812.03-69.24L812.03-69.24Q809.09-69.24 805.78-65.56L805.78-65.56L805.78-65.56Q802.47-61.89 799.68-56.15L799.68-56.15L799.68-56.15Q793.51-42.92 793.51-29.55L793.51-29.55L793.51-29.55Q793.51-22.20 796.30-18.89L796.30-18.89L796.30-18.89Q799.09-15.58 805.27-15.58L805.27-15.58L805.27-15.58Q813.79-15.58 820.55-22.64L820.55-22.64L820.55-22.64Q822.46-24.84 823.49-27.34L823.49-27.34L823.49-27.34Q829.08-24.40 829.08-16.32L829.08-16.32L829.08-16.32Q829.08-8.08 819.97-2.65L819.97-2.65L819.97-2.65Q810.56 2.94 795.56 2.94L795.56 2.94L795.56 2.94Q765.72 2.94 765.72-28.66L765.72-28.66L765.72-28.66Q765.72-51.74 778.81-64.97L778.81-64.97L778.81-64.97Q791.45-77.91 814.67-77.91L814.67-77.91L814.67-77.91Q837.90-77.91 837.90-61.15ZM877.00-8.08L877.00-8.08L877.00-8.08Q872.44 2.94 857.89 2.94L857.89 2.94L857.89 2.94Q850.54 2.94 845.84-2.21L845.84-2.21L845.84-2.21Q842.02-6.47 842.02-11.32L842.02-11.32L842.02-11.32Q842.02-22.34 847.16-46.45L847.16-46.45L857.89-102.90L887.73-105.84L873.47-31.46L873.47-31.46Q870.97-20.58 870.97-16.76L870.97-16.76L870.97-16.76Q870.97-8.38 877.00-8.08ZM936.68-6.17L936.68-6.17L936.68-6.17Q929.63 2.94 912.13 2.94L912.13 2.94L912.13 2.94Q903.02 2.94 896.41-2.57L896.41-2.57L896.41-2.57Q889.79-8.08 889.79-16.02L889.79-16.02L889.79-16.02Q889.79-20.43 890.23-22.64L890.23-22.64L900.08-74.97L929.92-77.91L919.19-21.17L919.19-21.17Q918.60-17.93 918.60-16.02L918.60-16.02L918.60-16.02Q918.60-7.50 923.75-7.50L923.75-7.50L923.75-7.50Q929.48-7.50 933.60-15.29L933.60-15.29L933.60-15.29Q934.92-17.79 935.51-21.02L935.51-21.02L945.94-74.97L974.90-77.91L964.03-20.58L964.03-20.58Q963.58-18.38 963.58-16.02L963.58-16.02L963.58-16.02Q963.58-13.67 964.91-11.10L964.91-11.10L964.91-11.10Q966.23-8.53 970.49-7.94L970.49-7.94L970.49-7.94Q969.61-4.41 966.52-2.06L966.52-2.06L966.52-2.06Q960.06 2.94 953.07 2.94L953.07 2.94L953.07 2.94Q946.09 2.94 941.98 0.44L941.98 0.44L941.98 0.44Q937.86-2.06 936.68-6.17ZM1026.80-51.60L1026.80-51.60L1026.80-51.60Q1028.85-57.04 1028.85-61.74L1028.85-61.74L1028.85-61.74Q1028.85-70.41 1021.80-70.41L1021.80-70.41L1021.80-70.41Q1018.12-70.41 1015.11-67.11L1015.11-67.11L1015.11-67.11Q1012.09-63.80 1012.09-59.68L1012.09-59.68L1012.09-59.68Q1012.09-56.74 1014.45-54.39L1014.45-54.39L1014.45-54.39Q1017.83-51.16 1026.50-45.86L1026.50-45.86L1026.50-45.86Q1035.17-40.57 1038.48-36.24L1038.48-36.24L1038.48-36.24Q1041.79-31.90 1041.79-25.95L1041.79-25.95L1041.79-25.95Q1041.79-19.99 1038.92-14.55L1038.92-14.55L1038.92-14.55Q1036.06-9.11 1030.91-5.29L1030.91-5.29L1030.91-5.29Q1019.89 2.94 1002.25 2.94L1002.25 2.94L1002.25 2.94Q992.69 2.94 985.34-2.06L985.34-2.06L985.34-2.06Q977.99-6.91 977.99-12.64L977.99-12.64L977.99-12.64Q977.99-18.38 982.18-21.76L982.18-21.76L982.18-21.76Q986.37-25.14 992.54-25.14L992.54-25.14L992.54-25.14Q998.72-25.14 1002.54-22.79L1002.54-22.79L1002.54-22.79Q1000.63-17.93 1000.63-14.70L1000.63-14.70L1000.63-14.70Q1000.63-5.00 1008.86-5.00L1008.86-5.00L1008.86-5.00Q1012.39-5.00 1014.74-7.20L1014.74-7.20L1014.74-7.20Q1017.09-9.41 1017.09-13.23L1017.09-13.23L1017.09-13.23Q1017.09-20.73 1004.45-28.66L1004.45-28.66L1004.45-28.66Q994.16-35.43 991.81-38.07L991.81-38.07L991.81-38.07Q987.84-42.78 987.84-48.66L987.84-48.66L987.84-48.66Q987.84-54.54 990.63-60.12L990.63-60.12L990.63-60.12Q993.43-65.71 998.57-69.68L998.57-69.68L998.57-69.68Q1009.30-77.91 1027.97-77.91L1027.97-77.91L1027.97-77.91Q1037.53-77.91 1043.19-74.09L1043.19-74.09L1043.19-74.09Q1048.85-70.27 1048.85-63.80L1048.85-63.80L1048.85-63.80Q1048.85-57.33 1044.95-53.65L1044.95-53.65L1044.95-53.65Q1041.05-49.98 1034.00-49.98L1034.00-49.98L1034.00-49.98Q1029.15-49.98 1026.80-51.60ZM1089.56-8.08L1089.56-8.08L1089.56-8.08Q1085.01 2.94 1070.45 2.94L1070.45 2.94L1070.45 2.94Q1062.96 2.94 1058.25-2.21L1058.25-2.21L1058.25-2.21Q1054.28-6.76 1054.28-11.32L1054.28-11.32L1054.28-11.32Q1054.28-23.23 1059.72-46.45L1059.72-46.45L1065.16-74.97L1095.00-77.91L1086.04-31.46L1086.04-31.46Q1083.54-20.58 1083.54-16.76L1083.54-16.76L1083.54-16.76Q1083.54-8.38 1089.56-8.08ZM1067.81-95.40L1067.81-95.40L1067.81-95.40Q1067.81-101.14 1072.59-104.22L1072.59-104.22L1072.59-104.22Q1077.36-107.31 1084.27-107.31L1084.27-107.31L1084.27-107.31Q1091.18-107.31 1095.37-104.22L1095.37-104.22L1095.37-104.22Q1099.56-101.14 1099.56-95.40L1099.56-95.40L1099.56-95.40Q1099.56-89.67 1094.93-86.73L1094.93-86.73L1094.93-86.73Q1090.30-83.79 1083.39-83.79L1083.39-83.79L1083.39-83.79Q1076.48-83.79 1072.14-86.73L1072.14-86.73L1072.14-86.73Q1067.81-89.67 1067.81-95.40ZM1155.42-72.47L1155.42-72.47L1155.42-72.47Q1160.27-77.91 1168.65-77.91L1168.65-77.91L1168.65-77.91Q1173.79-77.91 1177.76-75.12L1177.76-75.12L1177.76-75.12Q1181.73-72.32 1181.73-67.11L1181.73-67.11L1181.73-67.11Q1181.73-61.89 1180.12-56.30L1180.12-56.30L1180.12-56.30Q1178.50-50.71 1176-44.98L1176-44.98L1176-44.98Q1171.00-33.81 1164.09-24.55L1164.09-24.55L1164.09-24.55Q1154.39-11.17 1145.06-4.12L1145.06-4.12L1145.06-4.12Q1135.72 2.94 1125.58 2.94L1125.58 2.94L1125.58 2.94Q1117.35 2.94 1112.35 1.03L1112.35 1.03L1112.35 1.03Q1111.47-29.84 1110.36-40.87L1110.36-40.87L1110.36-40.87Q1109.26-51.89 1108.38-57.92L1108.38-57.92L1108.38-57.92Q1106.91-69.68 1102.50-72.47L1102.50-72.47L1102.50-72.47Q1105.88-75.41 1109.19-76.66L1109.19-76.66L1109.19-76.66Q1112.50-77.91 1119.33-77.91L1119.33-77.91L1119.33-77.91Q1126.17-77.91 1131.02-72.54L1131.02-72.54L1131.02-72.54Q1135.87-67.18 1136.82-57.70L1136.82-57.70L1136.82-57.70Q1137.78-48.22 1137.78-36.75L1137.78-36.75L1137.78-36.75Q1137.78-25.28 1136.90-11.47L1136.90-11.47L1136.90-11.47Q1141.45-14.70 1146.31-24.55L1146.31-24.55L1146.31-24.55Q1152.92-38.22 1155.27-54.68L1155.27-54.68L1155.27-54.68Q1156.01-59.68 1156.01-64.97L1156.01-64.97L1156.01-64.97Q1156.01-70.27 1155.42-72.47ZM1245.24-24.84L1245.24-24.84L1245.24-24.84Q1248.91-22.34 1248.91-16.83L1248.91-16.83L1248.91-16.83Q1248.91-11.32 1246.12-7.79L1246.12-7.79L1246.12-7.79Q1243.33-4.26 1238.77-1.91L1238.77-1.91L1238.77-1.91Q1229.36 2.94 1219.22 2.94L1219.22 2.94L1219.22 2.94Q1209.08 2.94 1203.12 0.73L1203.12 0.73L1203.12 0.73Q1197.17-1.47 1193.20-5.59L1193.20-5.59L1193.20-5.59Q1185.41-13.38 1185.41-27.64L1185.41-27.64L1185.41-27.64Q1185.41-49.83 1197.46-63.36L1197.46-63.36L1197.46-63.36Q1210.40-77.91 1232.89-77.91L1232.89-77.91L1232.89-77.91Q1246.85-77.91 1253.76-72.03L1253.76-72.03L1253.76-72.03Q1258.91-67.62 1258.91-60.42L1258.91-60.42L1258.91-60.42Q1258.91-34.54 1214.22-34.54L1214.22-34.54L1214.22-34.54Q1213.63-30.72 1213.63-27.49L1213.63-27.49L1213.63-27.49Q1213.63-20.73 1216.65-18.15L1216.65-18.15L1216.65-18.15Q1219.66-15.58 1225.24-15.58L1225.24-15.58L1225.24-15.58Q1230.83-15.58 1236.78-18.15L1236.78-18.15L1236.78-18.15Q1242.74-20.73 1245.24-24.84ZM1215.25-40.87L1215.25-40.87L1215.25-40.87Q1225.69-40.87 1231.71-47.33L1231.71-47.33L1231.71-47.33Q1237.74-53.51 1237.74-63.36L1237.74-63.36L1237.74-63.36Q1237.74-66.74 1236.49-68.58L1236.49-68.58L1236.49-68.58Q1235.24-70.41 1232.74-70.41L1232.74-70.41L1232.74-70.41Q1230.24-70.41 1228.11-69.46L1228.11-69.46L1228.11-69.46Q1225.98-68.50 1223.77-65.27L1223.77-65.27L1223.77-65.27Q1218.34-57.92 1215.25-40.87Z" fill="#0a0a0a"></path></g></g><style>text {
  font-size: 64px;
  font-family: Arial Black;
  dominant-baseline: central;
  text-anchor: middle;
}</style></svg>